<svg width="79" height="18" viewBox="0 0 79 18" fill="none" xmlns="http://www.w3.org/2000/svg">
<path fill-rule="evenodd" clip-rule="evenodd" d="M10.802 4.52392C12.7502 4.52392 13.9959 6.46918 13.9959 6.46918C13.9959 6.46918 12.0955 7.53343 12.0955 9.84472C12.0955 12.5879 14.4829 13.3859 14.4829 13.3859C14.4829 13.3859 12.5986 17.9999 10.4827 17.9999C9.29296 17.9999 9.21346 17.2936 7.63234 17.2936C6.25927 17.2936 5.79622 17.9999 4.75025 17.9999C2.75388 17.9999 0.174988 13.5024 0.174988 9.84472C0.174988 6.04537 2.78601 4.52392 4.42274 4.52392C5.86008 4.52392 6.45866 5.39681 7.61628 5.39681C8.59057 5.39681 9.35723 4.52392 10.802 4.52392ZM10.467 0.649658C10.7541 2.51187 9.11741 4.81502 7.16141 4.74011C6.87386 2.3706 8.98187 0.774662 10.467 0.649658ZM24.3366 10.9677L25.8682 6.61786H25.8935L27.3998 10.9677H24.3366ZM25.2354 5.49445L21.7166 14.8212H22.9444L23.957 12.0127H27.7796L28.7669 14.8212H30.0959L26.5645 5.49445H25.2354ZM30.8427 8.06776V17.3945H31.9186V13.9198H31.9439C32.0621 14.1201 32.2076 14.2878 32.3806 14.4227C32.5536 14.5577 32.7371 14.6644 32.9312 14.7428C33.1253 14.8211 33.3215 14.8777 33.5198 14.9126C33.7181 14.9474 33.8974 14.9648 34.0578 14.9648C34.5556 14.9648 34.9923 14.8734 35.3678 14.6905C35.7433 14.5076 36.0556 14.2573 36.3045 13.9394C36.5534 13.6216 36.7391 13.2493 36.8614 12.8226C36.9838 12.3958 37.045 11.943 37.045 11.464C37.045 10.9851 36.9817 10.5322 36.8551 10.1055C36.7285 9.67882 36.5408 9.30218 36.2918 8.97562C36.0429 8.64905 35.7307 8.38998 35.3552 8.19839C34.9797 8.0068 34.5387 7.91101 34.0324 7.91101C33.5768 7.91101 33.1591 7.99592 32.7793 8.16573C32.3996 8.33555 32.1211 8.60768 31.9439 8.98215H31.9186V8.06776H30.8427ZM35.9057 11.3857C35.9057 11.7166 35.872 12.0388 35.8045 12.3523C35.737 12.6658 35.6273 12.9445 35.4754 13.1884C35.3235 13.4322 35.1231 13.6281 34.8741 13.7762C34.6252 13.9242 34.3151 13.9982 33.9438 13.9982C33.5725 13.9982 33.2561 13.9264 32.9945 13.7827C32.7329 13.639 32.5198 13.4496 32.3552 13.2145C32.1907 12.9794 32.0704 12.7072 31.9945 12.3981C31.9186 12.0889 31.8806 11.7689 31.8806 11.438C31.8806 11.1245 31.9164 10.8153 31.9882 10.5105C32.0599 10.2057 32.1759 9.93358 32.3363 9.6941C32.4966 9.45462 32.7033 9.26086 32.9565 9.11281C33.2096 8.96477 33.5176 8.89075 33.8805 8.89075C34.2265 8.89075 34.5281 8.96041 34.7855 9.09975C35.0429 9.23908 35.2538 9.42631 35.4184 9.66144C35.583 9.89657 35.7053 10.1644 35.7855 10.4648C35.8656 10.7652 35.9057 11.0722 35.9057 11.3857ZM38.3487 8.06776V17.3945H39.4246V13.9198H39.4499C39.5681 14.1201 39.7136 14.2878 39.8866 14.4227C40.0596 14.5577 40.2431 14.6644 40.4372 14.7428C40.6313 14.8211 40.8275 14.8777 41.0258 14.9126C41.2241 14.9474 41.4034 14.9648 41.5638 14.9648C42.0616 14.9648 42.4983 14.8734 42.8738 14.6905C43.2494 14.5076 43.5616 14.2573 43.8105 13.9394C44.0594 13.6216 44.2451 13.2493 44.3674 12.8226C44.4898 12.3958 44.551 11.943 44.551 11.464C44.551 10.9851 44.4877 10.5322 44.3611 10.1055C44.2345 9.67882 44.0468 9.30218 43.7979 8.97562C43.5489 8.64905 43.2367 8.38998 42.8612 8.19839C42.4857 8.0068 42.0448 7.91101 41.5385 7.91101C41.0828 7.91101 40.6651 7.99592 40.2853 8.16573C39.9056 8.33555 39.6271 8.60768 39.4499 8.98215H39.4246V8.06776H38.3487ZM43.4117 11.3857C43.4117 11.7166 43.378 12.0388 43.3105 12.3523C43.243 12.6658 43.1333 12.9445 42.9814 13.1884C42.8295 13.4322 42.6291 13.6281 42.3801 13.7762C42.1312 13.9242 41.8211 13.9982 41.4498 13.9982C41.0785 13.9982 40.7621 13.9264 40.5005 13.7827C40.2389 13.639 40.0258 13.4496 39.8613 13.2145C39.6967 12.9794 39.5765 12.7072 39.5005 12.3981C39.4246 12.0889 39.3866 11.7689 39.3866 11.438C39.3866 11.1245 39.4225 10.8153 39.4942 10.5105C39.5659 10.2057 39.6819 9.93358 39.8423 9.6941C40.0026 9.45462 40.2093 9.26086 40.4625 9.11281C40.7157 8.96477 41.0237 8.89075 41.3865 8.89075C41.7325 8.89075 42.0342 8.96041 42.2915 9.09975C42.5489 9.23908 42.7599 9.42631 42.9244 9.66144C43.089 9.89657 43.2113 10.1644 43.2915 10.4648C43.3717 10.7652 43.4117 11.0722 43.4117 11.3857ZM54.7404 8.22456H55.8796C55.8627 7.71076 55.7678 7.26881 55.5948 6.8987C55.4218 6.52859 55.1855 6.22162 54.8859 5.97778C54.5864 5.73394 54.2383 5.55542 53.8417 5.44221C53.4451 5.329 53.0147 5.2724 52.5506 5.2724C52.1371 5.2724 51.7342 5.32683 51.3418 5.43568C50.9494 5.54454 50.5992 5.71 50.2912 5.93206C49.9832 6.15413 49.7364 6.43715 49.5507 6.78113C49.3651 7.12512 49.2723 7.53223 49.2723 8.00249C49.2723 8.4292 49.3545 8.78407 49.5191 9.06709C49.6836 9.35012 49.903 9.58089 50.1773 9.75941C50.4515 9.93794 50.7617 10.0816 51.1076 10.1905C51.4536 10.2993 51.8059 10.3951 52.1645 10.4779C52.5232 10.5606 52.8755 10.6411 53.2215 10.7195C53.5674 10.7979 53.8776 10.9002 54.1518 11.0265C54.4261 11.1528 54.6455 11.316 54.81 11.5163C54.9746 11.7166 55.0568 11.9779 55.0568 12.3001C55.0568 12.6397 54.9893 12.9184 54.8543 13.1361C54.7193 13.3538 54.5421 13.5258 54.3227 13.6521C54.1033 13.7784 53.8565 13.8676 53.5822 13.9199C53.308 13.9721 53.0358 13.9982 52.7658 13.9982C52.4282 13.9982 52.0992 13.9547 51.7785 13.8676C51.4578 13.7805 51.1772 13.6455 50.9368 13.4627C50.6963 13.2798 50.5022 13.0468 50.3545 12.7638C50.2068 12.4808 50.133 12.1433 50.133 11.7515H48.9938C48.9938 12.3175 49.093 12.8074 49.2913 13.221C49.4896 13.6347 49.7596 13.9743 50.1013 14.2399C50.4431 14.5055 50.8397 14.7036 51.2912 14.8342C51.7426 14.9649 52.2215 15.0302 52.7278 15.0302C53.1413 15.0302 53.5569 14.9801 53.9746 14.88C54.3923 14.7798 54.7699 14.6187 55.1075 14.3966C55.445 14.1746 55.7214 13.8872 55.9365 13.5345C56.1517 13.1818 56.2593 12.7573 56.2593 12.2609C56.2593 11.7994 56.177 11.4162 56.0125 11.1114C55.8479 10.8066 55.6285 10.5541 55.3543 10.3538C55.08 10.1535 54.7699 9.99454 54.4239 9.87698C54.078 9.75941 53.7257 9.65709 53.367 9.57001C53.0084 9.48292 52.6561 9.40237 52.3101 9.32835C51.9641 9.25433 51.654 9.16071 51.3798 9.0475C51.1055 8.93429 50.8861 8.78843 50.7216 8.6099C50.557 8.43138 50.4747 8.19843 50.4747 7.91105C50.4747 7.60626 50.5317 7.35154 50.6456 7.14689C50.7595 6.94224 50.9114 6.77896 51.1013 6.65704C51.2912 6.53512 51.5085 6.44804 51.7532 6.39579C51.9979 6.34354 52.2468 6.31741 52.5 6.31741C53.1244 6.31741 53.6371 6.46763 54.0379 6.76807C54.4387 7.06851 54.6729 7.554 54.7404 8.22456ZM59.0313 8.0678V6.04309H57.9554V8.0678H56.8415V9.0475H57.9554V13.3451C57.9554 13.6586 57.9849 13.9111 58.044 14.1027C58.1031 14.2943 58.1938 14.4424 58.3162 14.5469C58.4385 14.6514 58.5988 14.7232 58.7971 14.7624C58.9954 14.8016 59.2338 14.8212 59.5123 14.8212H60.3351V13.8415H59.8414C59.6726 13.8415 59.5355 13.835 59.43 13.8219C59.3245 13.8088 59.2423 13.7805 59.1832 13.737C59.1241 13.6934 59.0841 13.6325 59.063 13.5541C59.0419 13.4757 59.0313 13.3712 59.0313 13.2406V9.0475H60.3351V8.0678H59.0313ZM62.3096 11.451C62.3096 11.0417 62.3624 10.6782 62.4678 10.3603C62.5733 10.0424 62.7189 9.77465 62.9045 9.55694C63.0902 9.33923 63.3075 9.17377 63.5564 9.06056C63.8053 8.94735 64.069 8.89075 64.3475 8.89075C64.626 8.89075 64.8897 8.94735 65.1386 9.06056C65.3875 9.17377 65.6048 9.33923 65.7905 9.55694C65.9761 9.77465 66.1217 10.0424 66.2272 10.3603C66.3326 10.6782 66.3854 11.0417 66.3854 11.451C66.3854 11.8603 66.3326 12.2239 66.2272 12.5418C66.1217 12.8596 65.9761 13.1252 65.7905 13.3386C65.6048 13.5519 65.3875 13.7152 65.1386 13.8284C64.8897 13.9416 64.626 13.9982 64.3475 13.9982C64.069 13.9982 63.8053 13.9416 63.5564 13.8284C63.3075 13.7152 63.0902 13.5519 62.9045 13.3386C62.7189 13.1252 62.5733 12.8596 62.4678 12.5418C62.3624 12.2239 62.3096 11.8603 62.3096 11.451ZM61.1704 11.451C61.1704 11.9474 61.2379 12.4089 61.373 12.8356C61.508 13.2623 61.7105 13.6346 61.9805 13.9525C62.2506 14.2703 62.5839 14.5185 62.9805 14.697C63.3771 14.8756 63.8328 14.9648 64.3475 14.9648C64.8707 14.9648 65.3285 14.8756 65.7209 14.697C66.1133 14.5185 66.4445 14.2703 66.7145 13.9525C66.9845 13.6346 67.187 13.2623 67.3221 12.8356C67.4571 12.4089 67.5246 11.9474 67.5246 11.451C67.5246 10.9546 67.4571 10.4909 67.3221 10.0598C67.187 9.62875 66.9845 9.25429 66.7145 8.93643C66.4445 8.61857 66.1133 8.3682 65.7209 8.18533C65.3285 8.00245 64.8707 7.91101 64.3475 7.91101C63.8328 7.91101 63.3771 8.00245 62.9805 8.18533C62.5839 8.3682 62.2506 8.61857 61.9805 8.93643C61.7105 9.25429 61.508 9.62875 61.373 10.0598C61.2379 10.4909 61.1704 10.9546 61.1704 11.451ZM68.7525 8.06781V14.8212H69.8284V11.8168C69.8284 11.3814 69.8706 10.996 69.955 10.6607C70.0394 10.3255 70.1744 10.0403 70.3601 9.80514C70.5457 9.57001 70.7904 9.39149 71.0942 9.26957C71.398 9.14765 71.7651 9.08669 72.1954 9.08669V7.91106C71.6132 7.89364 71.1322 8.01556 70.7524 8.27681C70.3727 8.53806 70.0521 8.943 69.7905 9.49164H69.7652V8.06781H68.7525ZM77.3216 10.7979H73.5623C73.5791 10.5366 73.634 10.2906 73.7268 10.0599C73.8196 9.82908 73.9462 9.62661 74.1066 9.45244C74.2669 9.27827 74.4589 9.14112 74.6825 9.04097C74.9061 8.94082 75.1571 8.89075 75.4356 8.89075C75.7056 8.89075 75.9525 8.94082 76.1761 9.04097C76.3997 9.14112 76.5938 9.27609 76.7583 9.44591C76.9229 9.61572 77.0537 9.81819 77.1507 10.0533C77.2478 10.2885 77.3047 10.5366 77.3216 10.7979ZM78.3597 12.6789H77.2964C77.2036 13.123 77.0116 13.4539 76.7205 13.6716C76.4294 13.8893 76.056 13.9982 75.6003 13.9982C75.2459 13.9982 74.9379 13.9372 74.6763 13.8153C74.4147 13.6934 74.1995 13.5301 74.0307 13.3255C73.862 13.1208 73.7396 12.8857 73.6637 12.6201C73.5877 12.3545 73.554 12.0736 73.5624 11.7775H78.4609C78.4778 11.3683 78.4419 10.9372 78.3533 10.4843C78.2647 10.0315 78.1044 9.61351 77.8723 9.23034C77.6403 8.84716 77.3323 8.53149 76.9483 8.2833C76.5644 8.0351 76.0813 7.91101 75.499 7.91101C75.0518 7.91101 74.6404 7.99809 74.2649 8.17226C73.8894 8.34643 73.5645 8.59027 73.2903 8.90377C73.016 9.21728 72.8029 9.58738 72.651 10.0141C72.4992 10.4408 72.4232 10.9111 72.4232 11.4249C72.4401 11.9387 72.5139 12.4133 72.6447 12.8487C72.7755 13.2841 72.9717 13.6586 73.2333 13.9721C73.4949 14.2856 73.8177 14.5294 74.2016 14.7036C74.5856 14.8777 75.0391 14.9648 75.5623 14.9648C76.3049 14.9648 76.9209 14.7732 77.4103 14.3901C77.8998 14.0069 78.2162 13.4365 78.3597 12.6789Z" fill="white"/>
</svg>
