<svg width="86" height="17" viewBox="0 0 86 17" fill="none" xmlns="http://www.w3.org/2000/svg">
<path fill-rule="evenodd" clip-rule="evenodd" d="M60.3627 10.4015L59.6679 11.0807C59.5074 11.1721 59.3476 11.2783 59.1884 11.3536C58.7058 11.5806 58.2151 11.6377 57.779 11.6377C57.3149 11.6377 56.5874 11.6065 55.8453 11.0504C54.8143 10.2981 54.3636 9.00489 54.3636 7.87802C54.3636 5.5449 56.197 4.40063 57.6925 4.40063C58.2151 4.40063 58.7519 4.5362 59.1884 4.82204C59.9142 5.31926 60.1018 5.96541 60.206 6.31146L56.791 7.74067L55.6727 7.83075C56.0347 9.7438 57.2839 10.8564 58.6645 10.8564C59.3541 10.8564 59.8659 10.6232 60.3356 10.3828C60.3356 10.3828 60.4299 10.332 60.3627 10.4015ZM58.3024 6.59642C58.5796 6.49207 58.7238 6.40199 58.7238 6.19241C58.7238 5.59129 58.0673 4.89697 57.2839 4.89697C56.7036 4.89697 55.614 5.3652 55.614 6.99107C55.614 7.24481 55.6433 7.51504 55.6579 7.78528L58.3024 6.59642ZM53.2223 10.2852C53.2223 10.8698 53.323 10.9608 53.8004 11.0067C54.0493 11.037 54.2972 11.0504 54.5426 11.0807L54.0053 11.4121H51.4453C51.7811 10.9608 51.8387 10.9157 51.8387 10.6152V10.2794L51.8331 1.33221H50.7027L51.791 0.789062H53.8685C53.4182 1.0593 53.2834 1.22385 53.2257 1.75049L53.2223 10.2852ZM49.252 5.13913C49.5856 5.42319 50.2817 6.02609 50.2817 7.16946C50.2817 8.28385 49.6751 8.80916 49.0634 9.30637C48.8757 9.50213 48.6562 9.7144 48.6562 10.0426C48.6562 10.3757 48.8757 10.5563 49.0337 10.691L49.5585 11.1106C50.1964 11.6685 50.778 12.18 50.778 13.219C50.778 14.6344 49.4556 16.0618 46.9567 16.0618C44.8516 16.0618 43.834 15.0232 43.834 13.9097C43.834 13.3679 44.0944 12.6005 44.9536 12.0747C45.8542 11.5044 47.0742 11.4281 47.7276 11.3835C47.5236 11.1106 47.2907 10.8248 47.2907 10.3583C47.2907 10.1033 47.3648 9.95119 47.4362 9.77192C47.2774 9.78753 47.1172 9.80359 46.9717 9.80359C45.431 9.80359 44.5602 8.61295 44.5602 7.4397C44.5602 6.74761 44.865 5.97971 45.4909 5.42319C46.3191 4.71683 47.3066 4.59509 48.0914 4.59509H51.0849L50.1543 5.13913H49.252ZM48.2228 11.8196C48.1035 11.8036 48.0321 11.8036 47.8883 11.8036C47.7566 11.8036 46.9718 11.833 46.364 12.0444C46.0424 12.1661 45.113 12.526 45.113 13.5949C45.113 14.6616 46.1165 15.4308 47.6688 15.4308C49.0635 15.4308 49.8039 14.7383 49.8039 13.8058C49.8039 13.0384 49.3248 12.6335 48.2228 11.8196ZM48.6403 8.96035C48.9761 8.61297 49.0054 8.13314 49.0054 7.86068C49.0054 6.7784 48.3825 5.09277 47.175 5.09277C46.7983 5.09277 46.3902 5.28854 46.1586 5.59133C45.9128 5.90482 45.8392 6.31151 45.8392 6.70259C45.8392 7.7104 46.4066 9.38175 47.6545 9.38175C48.0187 9.38175 48.4104 9.19847 48.6403 8.96035ZM40.2455 11.6065C37.9365 11.6065 36.701 9.7438 36.701 8.05728C36.701 6.08671 38.2541 4.40063 40.4634 4.40063C42.599 4.40063 43.9365 6.13264 43.9365 7.95115C43.9365 9.7273 42.6145 11.6065 40.2455 11.6065ZM42.0622 10.3891C42.4134 9.90748 42.4987 9.30637 42.4987 8.72041C42.4987 7.3951 41.8891 4.86755 40.0876 4.86755C39.6084 4.86755 39.1259 5.06153 38.778 5.37815C38.2107 5.90479 38.1095 6.56656 38.1095 7.21583C38.1095 8.70257 38.8189 11.1548 40.5796 11.1548C41.1478 11.1548 41.7277 10.8698 42.0622 10.3891ZM32.5146 11.6065C30.2051 11.6065 28.9718 9.7438 28.9718 8.05728C28.9718 6.08671 30.5254 4.40063 32.7337 4.40063C34.868 4.40063 36.2043 6.13264 36.2043 7.95115C36.2043 9.7273 34.884 11.6065 32.5146 11.6065ZM34.3316 10.3891C34.6802 9.90748 34.7672 9.30637 34.7672 8.72041C34.7672 7.3951 34.1559 4.86755 32.3561 4.86755C31.8752 4.86755 31.3978 5.06153 31.0492 5.37815C30.4809 5.90479 30.3802 6.56656 30.3802 7.21583C30.3802 8.70257 31.0926 11.1548 32.8503 11.1548C33.4172 11.1548 33.9962 10.8698 34.3316 10.3891ZM28.0483 11.0843L26.1008 11.5463C25.3118 11.6752 24.6032 11.7884 23.8529 11.7884C20.0965 11.7884 18.6652 8.92421 18.6652 6.68251C18.6652 3.94493 20.6931 1.40668 24.1663 1.40668C24.9011 1.40668 25.6079 1.51861 26.2519 1.70055C27.2726 1.99754 27.75 2.36365 28.0483 2.57814L26.917 3.69119L26.44 3.80178L26.7801 3.24035C26.3195 2.77435 25.4728 1.91415 23.8658 1.91415C21.7173 1.91415 20.0965 3.60602 20.0965 6.07604C20.0965 8.72889 21.9471 11.2243 24.9153 11.2243C25.7874 11.2243 26.2364 11.0428 26.6441 10.8734V8.59912L24.5877 8.71373L25.6777 8.10726H28.5636L28.2106 8.4591C28.1155 8.54294 28.1025 8.57148 28.0759 8.68385C28.0617 8.81228 28.0483 9.22075 28.0483 9.36434V11.0843ZM64.5499 10.4658V14.2986H63.8151V4.54559H64.5499V5.65641C65.0286 4.93846 65.9033 4.36945 66.9193 4.36945C68.7415 4.36945 69.9688 5.80134 69.9688 8.06801C69.9688 10.3195 68.7415 11.7813 66.9193 11.7813C65.9602 11.7813 65.1009 11.2689 64.5499 10.4658ZM69.1794 8.06802C69.1794 6.35966 68.3197 5.05664 66.7954 5.05664C65.8488 5.05664 64.9435 5.82721 64.55 6.49923V9.62121C64.9435 10.2946 65.8488 11.0932 66.7954 11.0932C68.3197 11.0932 69.1794 9.77907 69.1794 8.06802ZM70.9723 1.8526H71.7067V11.6056H70.9723V1.8526ZM79.952 13.668C80.1091 13.7407 80.3773 13.7853 80.5473 13.7853C80.9968 13.7853 81.3097 13.5949 81.5908 12.9224L82.1268 11.6645L79.2322 4.54559H80.0519L82.5349 10.7146L84.9938 4.54559H85.825L82.2946 13.1583C81.9283 14.0457 81.3519 14.4725 80.5602 14.4725C80.3226 14.4725 80.0092 14.4288 79.8259 14.3704L79.952 13.668ZM77.8057 11.5846C77.7566 11.3398 77.7196 11.124 77.6925 10.9438C77.6701 10.7641 77.6572 10.5804 77.6572 10.3936C77.4054 10.7766 77.0485 11.0955 76.5926 11.3465C76.1363 11.5994 75.7028 11.7233 75.1083 11.7233C74.3924 11.7233 73.8367 11.5409 73.4402 11.1708C73.045 10.8011 72.8462 10.3004 72.8462 9.66669C72.8462 9.03391 73.1341 8.52019 73.7084 8.12733C74.2827 7.73268 75.0248 7.53647 75.9435 7.53647H77.6572V6.65932C77.6572 6.15408 77.491 5.75675 77.1591 5.46868C76.8259 5.18016 76.3584 5.03434 75.7523 5.03434C75.1983 5.03434 74.7489 5.16767 74.4066 5.42721C74.0674 5.69209 73.8965 6.0203 73.8965 6.41584H73.1445L73.129 6.37793C73.1019 5.8446 73.3373 5.37682 73.838 4.9728C74.3365 4.56923 74.9895 4.36633 75.7932 4.36633C76.5943 4.36633 77.2426 4.56611 77.7312 4.96477C78.2194 5.35942 78.4643 5.92977 78.4643 6.67537V10.1581C78.4643 10.4083 78.476 10.65 78.5061 10.8854C78.5371 11.1213 78.5866 11.3568 78.6525 11.5846H77.8057ZM75.1983 11.0299C75.8225 11.0299 76.2711 10.8854 76.7295 10.5996C77.185 10.3155 77.4949 9.94493 77.6572 9.49632V8.14069H75.9353C75.2775 8.14069 74.733 8.29141 74.3046 8.59554C73.8755 8.89877 73.6581 9.26577 73.6581 9.69253C73.6581 10.0952 73.7958 10.4172 74.0696 10.6611C74.3443 10.9077 74.7196 11.0299 75.1983 11.0299ZM0.85543 14.268C0.618932 14.2028 0.464996 13.9624 0.464996 13.5904V1.31104C0.464996 0.966504 0.595336 0.734141 0.80195 0.649658L6.69576 7.49276L0.85543 14.268ZM1.66663 14.0073L8.76091 9.89068L7.033 7.88446L1.66663 14.0073ZM8.80973 5.04022L1.81431 0.97998L7.04319 7.08954L8.80973 5.04022ZM9.28447 5.31567L12.0249 6.90625C12.5438 7.20741 12.5485 7.69287 12.0249 7.99671L9.21514 9.62715L7.38246 7.48581L9.28447 5.31567Z" fill="white"/>
</svg>
